<svg width="500" height="500" viewBox="0 0 500 500" fill="none" xmlns="http://www.w3.org/2000/svg">
<rect x="2.5" y="2.5" width="495" height="495" fill="#F2F2F2" stroke="black" stroke-width="5"/>
<path d="M128.8 160V249.7H233.5V160H265.9V370H233.5V280.9H128.8V370H96.4V160H128.8ZM402.323 243.7H365.123V370H333.923V243.7H308.723V215.2H333.923V194.8C333.923 181.2 338.223 170.1 346.823 161.5C355.623 152.7 366.923 148.3 380.723 148.3C388.723 148.3 395.323 149.8 400.523 152.8C405.923 155.8 409.823 158.7 412.223 161.5L401.723 185.2C399.723 183.2 397.123 181.4 393.923 179.8C390.723 178 387.523 177.1 384.323 177.1C377.123 177.1 372.123 178.8 369.323 182.2C366.523 185.6 365.123 189.8 365.123 194.8V215.2H402.323V243.7Z" fill="#8F0056" fill-opacity="0.51"/>
<path d="M138.8 152V241.7H243.5V152H275.9V362H243.5V272.9H138.8V362H106.4V152H138.8ZM412.323 235.7H375.123V362H343.923V235.7H318.723V207.2H343.923V186.8C343.923 173.2 348.223 162.1 356.823 153.5C365.623 144.7 376.923 140.3 390.723 140.3C398.723 140.3 405.323 141.8 410.523 144.8C415.923 147.8 419.823 150.7 422.223 153.5L411.723 177.2C409.723 175.2 407.123 173.4 403.923 171.8C400.723 170 397.523 169.1 394.323 169.1C387.123 169.1 382.123 170.8 379.323 174.2C376.523 177.6 375.123 181.8 375.123 186.8V207.2H412.323V235.7Z" fill="black"/>
<path d="M156.8 136V225.7H261.5V136H293.9V346H261.5V256.9H156.8V346H124.4V136H156.8ZM430.323 219.7H393.123V346H361.923V219.7H336.723V191.2H361.923V170.8C361.923 157.2 366.223 146.1 374.823 137.5C383.623 128.7 394.923 124.3 408.723 124.3C416.723 124.3 423.323 125.8 428.523 128.8C433.923 131.8 437.823 134.7 440.223 137.5L429.723 161.2C427.723 159.2 425.123 157.4 421.923 155.8C418.723 154 415.523 153.1 412.323 153.1C405.123 153.1 400.123 154.8 397.323 158.2C394.523 161.6 393.123 165.8 393.123 170.8V191.2H430.323V219.7Z" fill="#72DC9C" fill-opacity="0.51"/>
</svg>
